<?xml version="1.0" encoding="iso-8859-1"?>
<!-- Uploaded to: SVG Repo, www.svgrepo.com, Generator: SVG Repo Mixer Tools -->
<svg height="800px" width="800px" version="1.1" id="Layer_1" xmlns="http://www.w3.org/2000/svg" xmlns:xlink="http://www.w3.org/1999/xlink" 
	 viewBox="0 0 512 512" xml:space="preserve">
<path style="fill:#F7D04A;" d="M165.896,0H95.934c-4.392,0-7.95,3.56-7.95,7.95v218.369c0,4.391,3.559,7.95,7.95,7.95h69.963
	c4.392,0,7.95-3.56,7.95-7.95V7.95C173.847,3.56,170.287,0,165.896,0z"/>
<g>
	<path style="fill:#EB6836;" d="M129.325,46.112c0-4.391-3.559-7.95-7.95-7.95H87.983v15.901h33.391
		C125.765,54.062,129.325,50.502,129.325,46.112z"/>
	<path style="fill:#EB6836;" d="M129.325,80.033c0-4.391-3.559-7.95-7.95-7.95H87.983v15.901h33.391
		C125.765,87.983,129.325,84.424,129.325,80.033z"/>
	<path style="fill:#EB6836;" d="M129.325,113.954c0-4.391-3.559-7.95-7.95-7.95H87.983v15.901h33.391
		C125.765,121.905,129.325,118.345,129.325,113.954z"/>
	<path style="fill:#EB6836;" d="M129.325,147.876c0-4.391-3.559-7.95-7.95-7.95H87.983v15.901h33.391
		C125.765,155.826,129.325,152.266,129.325,147.876z"/>
	<path style="fill:#EB6836;" d="M201.938,0H95.934c-4.392,0-7.95,3.56-7.95,7.95v7.95h113.954c4.392,0,7.95-3.56,7.95-7.95
		S206.328,0,201.938,0z"/>
	<path style="fill:#EB6836;" d="M255.538,178.087H95.934c-4.392,0-7.95,3.56-7.95,7.95v174.907
		C87.983,444.237,155.746,512,239.039,512h16.43c45.112,0,87.652-17.765,119.779-50.022c31.624-31.753,48.944-73.519,48.767-117.611
		C423.648,252.68,348.069,178.087,255.538,178.087z"/>
</g>
<path style="fill:#C74B38;" d="M250.7,202.998c-78.323,0-142.046,63.721-142.046,142.046S172.376,487.089,250.7,487.089
	s142.046-63.721,142.046-142.046S329.023,202.998,250.7,202.998z"/>
<path style="fill:#F7D04A;" d="M250.7,222.609c-67.511,0-122.435,54.924-122.435,122.435S183.189,467.478,250.7,467.478
	s122.435-54.924,122.435-122.435S318.209,222.609,250.7,222.609z"/>
<path style="fill:#EB6836;" d="M384,337.093h-266.6c-0.17,2.63-0.265,5.279-0.265,7.95s0.095,5.32,0.265,7.95H384
	c0.17-2.63,0.265-5.279,0.265-7.95S384.169,339.723,384,337.093z"/>
<path style="fill:#C74B38;" d="M392.745,345.043c0,78.324-63.722,142.046-142.046,142.046s-142.046-63.721-142.046-142.046
	S172.376,202.998,250.7,202.998S392.745,266.719,392.745,345.043z M250.7,222.609c-67.511,0-122.435,54.924-122.435,122.435
	S183.189,467.478,250.7,467.478s122.435-54.924,122.435-122.435S318.209,222.609,250.7,222.609z"/>
<g>
	<path style="fill:#EB6836;" d="M266.07,319.602c0,4.391,3.559,7.95,7.95,7.95s7.95-3.56,7.95-7.95V268.72
		c0-6.624-8.016-10.359-13.086-6.07l-22.425,18.976l-22.425-18.976c-5.069-4.288-13.086-0.557-13.086,6.07v50.882
		c0,4.391,3.559,7.95,7.95,7.95c4.392,0,7.95-3.56,7.95-7.95v-33.74l14.475,12.249c2.965,2.508,7.307,2.508,10.271,0l14.476-12.249
		V319.602z"/>
	<path style="fill:#EB6836;" d="M232.149,362.534h-32.331c-4.392,0-7.95,3.56-7.95,7.95v50.882c0,4.391,3.559,7.95,7.95,7.95
		s7.95-3.56,7.95-7.95v-17.491h15.371c4.392,0,7.95-3.56,7.95-7.95s-3.559-7.95-7.95-7.95h-15.371v-9.54h24.381
		c4.392,0,7.95-3.56,7.95-7.95C240.099,366.094,236.54,362.534,232.149,362.534z"/>
	<path style="fill:#EB6836;" d="M301.582,362.534H265.54c-4.392,0-7.95,3.56-7.95,7.95c0,4.391,3.559,7.95,7.95,7.95h11.13v42.932
		c0,4.391,3.559,7.95,7.95,7.95c4.392,0,7.95-3.56,7.95-7.95v-42.932h9.01c4.392,0,7.95-3.56,7.95-7.95
		C309.532,366.094,305.972,362.534,301.582,362.534z"/>
</g>
</svg>